# xmcd
#
# Track frame offsets:
#	150
#	15645
#	33660
#	48502
#	62027
#	73022
#	87687
#	96570
#	114167
#	129830
#	143522
#	162532
#
# Disc length: 2337 seconds
#
# Revision: 0
# Processed by: cddbd v1.5.1PL0 Copyright (c) Steve Scherf et al.
# Submitted via: EasyCDDAExtractor 8.0.1.1
#
DISCID=a7091f0c
DTITLE=Rolando Boldrin - Caipira 2
DYEAR=2004
DGENRE=Caipira
TTITLE0=Campo Grande
TTITLE1=Eu A Viola E Deus
TTITLE2=Boiada Cuiabana
TTITLE3=Futebol Da Bicharada
TTITLE4=Carrêro Bão-T
TTITLE5=Quando Meu Peito
TTITLE6=Faca De Ponta
TTITLE7=Memória De Carreiro
TTITLE8=Rancho Da Serra
TTITLE9=Alpendre Da Saudade
TTITLE10=Toada Da Revolução
TTITLE11=Ingratidão
EXTD=
EXTT0=
EXTT1=
EXTT2=
EXTT3=
EXTT4=
EXTT5=
EXTT6=
EXTT7=
EXTT8=
EXTT9=
EXTT10=
EXTT11=
PLAYORDER=
